<?xml version="1.0" standalone="no"?>
<!DOCTYPE svg PUBLIC "-//W3C//DTD SVG 20010904//EN"
 "http://www.w3.org/TR/2001/REC-SVG-20010904/DTD/svg10.dtd">
<svg version="1.0" xmlns="http://www.w3.org/2000/svg"
 width="512.000000pt" height="512.000000pt" viewBox="0 0 512.000000 512.000000"
 preserveAspectRatio="xMidYMid meet">
<metadata>
Created by potrace 1.11, written by Peter Selinger 2001-2013
</metadata>
<g transform="translate(0.000000,512.000000) scale(0.100000,-0.100000)"
fill="#000000" stroke="none">
<path d="M2369 5116 c-2 -2 -36 -6 -74 -10 -72 -7 -80 -8 -180 -26 -110 -19
-119 -21 -212 -46 -601 -160 -1123 -534 -1475 -1057 -178 -264 -311 -585 -377
-906 -37 -179 -46 -281 -45 -521 0 -179 7 -295 20 -365 2 -11 9 -49 15 -85 17
-101 66 -285 106 -395 263 -737 841 -1310 1580 -1566 101 -34 256 -76 343 -92
181 -34 281 -42 495 -42 230 0 370 14 555 57 973 222 1729 980 1939 1947 17
75 33 161 36 191 4 30 9 66 11 80 9 49 12 456 4 525 -18 145 -22 171 -41 264
-45 221 -117 427 -220 635 -176 352 -424 652 -744 897 -151 116 -405 261 -575
329 -161 65 -414 137 -537 154 -24 3 -62 9 -85 12 -24 3 -54 8 -68 11 -28 5
-466 14 -471 9z m466 -89 c11 -3 45 -8 75 -12 168 -21 471 -104 605 -165 28
-13 77 -35 110 -50 33 -15 100 -51 149 -79 49 -28 90 -51 92 -51 8 0 187 -129
254 -183 101 -81 302 -284 380 -382 141 -179 268 -395 355 -605 41 -97 109
-310 121 -375 3 -16 9 -49 15 -72 5 -24 14 -76 20 -115 5 -40 13 -93 17 -118
4 -25 7 -146 6 -270 0 -186 -4 -249 -23 -365 -62 -382 -190 -707 -403 -1023
-177 -263 -481 -552 -751 -716 -250 -151 -573 -277 -822 -321 -16 -2 -39 -7
-50 -9 -12 -2 -48 -7 -80 -11 -33 -4 -69 -10 -80 -12 -39 -9 -422 -10 -505 -2
-586 63 -1083 297 -1500 706 -283 278 -490 609 -615 987 -43 130 -60 195 -84
336 -11 63 -23 131 -26 150 -14 75 -13 455 1 570 57 476 238 908 532 1273 85
106 274 296 382 382 367 295 849 493 1300 532 36 3 67 7 68 9 6 4 435 -4 457
-9z"/>
<path d="M2542 4941 c-10 -27 -15 -31 -49 -31 l-38 0 29 -23 c25 -20 28 -27
21 -56 l-7 -33 29 17 c28 17 31 17 56 0 29 -18 35 -9 17 25 -8 15 -4 23 23 44
l32 26 -42 0 c-34 0 -43 4 -43 18 0 9 -4 23 -9 30 -6 10 -11 6 -19 -17z"/>
<path d="M2389 4706 c-2 -2 -37 -7 -77 -10 -40 -4 -78 -9 -85 -11 -6 -2 -30
-7 -52 -10 -241 -35 -572 -168 -803 -324 -193 -130 -377 -300 -504 -466 -37
-49 -72 -94 -76 -100 -17 -22 -120 -194 -149 -250 -109 -210 -191 -483 -220
-735 -15 -128 -7 -539 11 -569 2 -3 7 -27 10 -53 8 -57 49 -221 76 -298 182
-535 548 -963 1050 -1228 142 -75 378 -163 501 -187 13 -3 49 -10 79 -16 144
-28 262 -37 445 -34 105 2 207 6 228 9 661 90 1224 454 1572 1016 121 197 225
455 266 660 5 30 12 64 14 75 21 108 27 178 30 350 2 110 0 223 -5 250 -4 28
-11 74 -14 104 -10 83 -45 237 -76 331 -112 342 -284 623 -535 873 -334 334
-763 544 -1245 612 -50 7 -435 17 -441 11z m421 -92 c126 -16 139 -18 261 -49
278 -71 549 -205 774 -383 72 -56 250 -232 318 -312 73 -86 194 -277 255 -401
55 -111 134 -322 145 -389 3 -14 10 -43 15 -65 36 -134 51 -291 47 -495 -2
-102 -6 -196 -9 -210 -4 -14 -8 -43 -11 -65 -4 -35 -8 -57 -29 -150 -58 -267
-189 -548 -369 -789 -34 -44 -115 -136 -182 -202 -215 -218 -408 -344 -730
-479 -87 -37 -320 -98 -420 -111 -22 -3 -51 -8 -65 -11 -47 -9 -385 -12 -455
-3 -161 20 -179 23 -305 55 -909 228 -1557 1058 -1558 1995 0 258 33 459 115
695 144 414 432 786 798 1030 131 87 267 160 390 208 85 34 239 82 291 91 13
3 32 7 42 10 133 40 475 55 682 30z"/>
<path d="M1662 3839 c-16 -6 -17 -89 -15 -1215 0 -665 1 -1215 2 -1221 1 -10
57 -13 244 -13 l243 0 -1 245 0 245 125 1 c334 2 420 2 424 -2 2 -2 50 -110
106 -239 55 -129 104 -238 109 -243 4 -4 123 -6 263 -5 l256 3 -128 302 c-70
166 -131 310 -134 320 -4 13 8 27 46 53 63 42 181 160 217 215 14 22 29 42 32
45 21 16 103 212 125 296 32 121 37 313 11 430 -40 177 -128 346 -249 474 -35
38 -140 127 -173 147 -90 56 -153 86 -230 112 -156 52 -143 51 -843 54 -227 1
-421 -1 -430 -4z m1110 -513 c405 -136 464 -675 97 -891 -100 -58 -158 -66
-464 -63 l-269 3 -1 480 c0 264 1 483 3 488 2 4 130 7 285 7 265 -1 286 -2
349 -24z"/>
<path d="M792 4132 c-10 -31 -31 -39 -77 -33 -5 1 4 -11 22 -26 31 -27 32 -29
18 -61 l-14 -33 28 21 c36 25 36 25 73 -2 30 -21 30 -21 19 0 -18 34 -13 59
17 81 15 12 20 21 12 20 -46 -4 -60 2 -73 33 l-13 33 -12 -33z"/>
<path d="M4332 4130 c-12 -34 -14 -36 -50 -32 l-37 4 24 -21 c13 -11 28 -21
32 -21 5 0 2 -18 -6 -40 l-14 -41 28 21 c36 25 36 25 72 0 l28 -21 -14 35
c-15 34 -14 35 18 61 17 14 25 25 17 24 -45 -5 -60 2 -73 34 l-14 32 -11 -35z"/>
<path d="M242 2732 c-11 -32 -15 -34 -60 -35 -17 0 -20 -3 -11 -13 6 -7 19
-16 29 -19 15 -5 17 -11 9 -37 -11 -39 -5 -46 19 -25 10 10 22 17 27 17 5 0
17 -7 27 -17 24 -21 34 -10 20 22 -10 21 -8 27 13 44 27 21 32 33 13 30 -35
-4 -49 4 -61 33 l-13 33 -12 -33z"/>
<path d="M4852 2732 c-10 -28 -15 -32 -49 -32 l-38 0 32 -25 c32 -25 32 -26
16 -62 l-15 -37 24 17 c40 29 49 30 78 8 l29 -21 -14 39 c-13 37 -12 39 11 50
33 15 30 31 -6 31 -24 0 -32 6 -43 32 l-13 33 -12 -33z"/>
<path d="M792 1122 c-10 -31 -33 -40 -77 -33 -5 1 3 -9 19 -22 25 -20 28 -27
21 -56 l-7 -33 30 17 c29 17 31 17 60 -4 l30 -21 -11 36 c-10 34 -9 38 18 61
l30 24 -35 -3 c-31 -3 -37 1 -51 32 l-16 34 -11 -32z"/>
<path d="M4332 1122 c-10 -30 -24 -37 -59 -33 -21 3 -14 -16 12 -33 22 -14 23
-19 13 -41 -15 -33 -3 -43 22 -20 20 18 22 18 51 1 l31 -18 -7 33 c-7 29 -4
36 21 56 l29 23 -37 0 c-33 0 -40 4 -51 32 l-13 33 -12 -33z"/>
<path d="M2542 302 c-10 -28 -15 -32 -47 -32 l-36 0 28 -24 c25 -22 26 -26 16
-60 l-11 -36 28 20 c35 25 35 25 72 -1 l29 -21 -15 36 c-15 35 -15 36 17 61
l32 25 -37 0 c-33 0 -40 4 -51 32 l-13 33 -12 -33z"/>
</g>
</svg>
